<svg width="792" height="758" viewBox="0 0 792 758" fill="none" xmlns="http://www.w3.org/2000/svg">
<path d="M366.611 10.3526C384.135 -2.37964 407.865 -2.37965 425.389 10.3526L770.81 261.315C788.334 274.047 795.667 296.616 788.973 317.217L657.034 723.283C650.341 743.884 631.143 757.832 609.482 757.832H182.518C160.857 757.832 141.659 743.884 134.966 723.283L3.0267 317.217C-3.66701 296.616 3.66589 274.047 21.1903 261.315L366.611 10.3526Z" fill="#30B483"/>
<path d="M366.611 10.3526C384.135 -2.37964 407.865 -2.37965 425.389 10.3526L770.81 261.315C788.334 274.047 795.667 296.616 788.973 317.217L657.034 723.283C650.341 743.884 631.143 757.832 609.482 757.832H182.518C160.857 757.832 141.659 743.884 134.966 723.283L3.0267 317.217C-3.66701 296.616 3.66589 274.047 21.1903 261.315L366.611 10.3526Z" fill="#F3F4F4"/>
</svg>
