<svg width="363" height="68" viewBox="0 0 363 68" fill="none" xmlns="http://www.w3.org/2000/svg">
<g clip-path="url(#clip0_4_929)">
<path d="M1.04402 0H51.4254C51.7022 0 51.9676 0.109269 52.1634 0.30377C52.3591 0.49827 52.469 0.76207 52.469 1.03714V19.9761C52.4752 20.1154 52.4527 20.2544 52.4029 20.3847C52.353 20.515 52.2769 20.6337 52.1791 20.7337C52.0814 20.8336 51.9641 20.9127 51.8345 20.9659C51.7048 21.0192 51.5656 21.0455 51.4254 21.0433H37.8129C37.6766 21.0453 37.5412 21.0203 37.4147 20.9699C37.2881 20.9194 37.173 20.8444 37.0758 20.7493C36.9787 20.6542 36.9016 20.5409 36.849 20.4159C36.7964 20.2909 36.7693 20.1567 36.7693 20.0212V10.0106C36.7636 9.87168 36.7298 9.73532 36.67 9.60962C36.6102 9.48392 36.5256 9.37145 36.4212 9.2789C36.3168 9.18636 36.1947 9.11562 36.0622 9.07089C35.9297 9.02617 35.7896 9.00838 35.65 9.01857H16.8345C16.6982 9.01855 16.5632 9.04548 16.4374 9.09778C16.3116 9.15009 16.1976 9.22672 16.1019 9.32323C16.0062 9.41974 15.9307 9.53419 15.8799 9.65994C15.8291 9.78569 15.804 9.92022 15.806 10.0557V20.0212C15.806 20.1567 15.7789 20.2909 15.7263 20.4159C15.6737 20.5409 15.5966 20.6542 15.4995 20.7493C15.4023 20.8444 15.2872 20.9194 15.1606 20.9699C15.0341 21.0203 14.8987 21.0453 14.7624 21.0433H1.04402C0.903785 21.0455 0.764581 21.0192 0.634965 20.9659C0.50535 20.9127 0.388064 20.8336 0.290316 20.7337C0.192569 20.6337 0.116426 20.515 0.0665679 20.3847C0.0167103 20.2544 -0.00580822 20.1154 0.000396703 19.9761V1.03714C0.000396703 0.76207 0.11035 0.49827 0.306067 0.30377C0.501785 0.109269 0.767235 0 1.04402 0V0ZM52.469 66.9779V48.099C52.469 47.824 52.3591 47.5602 52.1634 47.3657C51.9676 47.1712 51.7022 47.0619 51.4254 47.0619H37.8129C37.6758 47.0619 37.5401 47.0887 37.4135 47.1408C37.2869 47.193 37.1719 47.2694 37.0749 47.3657C36.978 47.462 36.9012 47.5763 36.8487 47.7021C36.7963 47.828 36.7693 47.9628 36.7693 48.099V58.0495C36.7693 58.3246 36.6593 58.5884 36.4636 58.7829C36.2679 58.9774 36.0024 59.0867 35.7256 59.0867H16.8345C16.6982 59.0867 16.5632 59.0597 16.4374 59.0074C16.3116 58.9551 16.1976 58.8785 16.1019 58.782C16.0062 58.6855 15.9307 58.571 15.8799 58.4453C15.8291 58.3195 15.804 58.185 15.806 58.0495V48.099C15.806 47.824 15.6961 47.5602 15.5004 47.3657C15.3046 47.1712 15.0392 47.0619 14.7624 47.0619H1.04402C0.767235 47.0619 0.501785 47.1712 0.306067 47.3657C0.11035 47.5602 0.000396703 47.824 0.000396703 48.099V67.038C0.00437041 67.3105 0.116075 67.5704 0.311364 67.7617C0.506652 67.9529 0.769836 68.0602 1.04402 68.0601H51.4254C51.5689 68.0644 51.7117 68.0392 51.8449 67.9861C51.9782 67.9331 52.099 67.8532 52.1998 67.7517C52.3005 67.6501 52.3792 67.529 52.4307 67.3958C52.4822 67.2627 52.5056 67.1204 52.4993 66.9779H52.469Z" fill="white"/>
<path d="M354.258 25.5524C354.161 25.5544 354.065 25.5372 353.975 25.5019C353.886 25.4665 353.804 25.4137 353.735 25.3465C353.666 25.2793 353.611 25.1991 353.573 25.1106C353.536 25.022 353.517 24.927 353.517 24.8309V22.9821C353.558 22.07 353.234 21.1787 352.616 20.5028C351.999 19.827 351.137 19.4214 350.219 19.3747H334.958C334.041 19.4214 333.179 19.827 332.561 20.5028C331.944 21.1787 331.62 22.07 331.661 22.9821C331.661 26.334 334.066 27.7018 343.126 29.6859C347.447 30.432 351.652 31.7357 355.634 33.5639C360.52 36.1492 363 40.0122 363 45.0926C363.041 48.0934 361.882 50.9875 359.778 53.1403C357.674 55.2931 354.797 56.5288 351.777 56.5763H333.627C332.128 56.5586 330.648 56.2475 329.27 55.6606C327.892 55.0737 326.644 54.2227 325.598 53.1561C324.551 52.0895 323.726 50.8284 323.171 49.4448C322.615 48.0611 322.339 46.5822 322.359 45.0926V43.1687C322.357 43.0727 322.374 42.9772 322.41 42.888C322.446 42.7987 322.499 42.7174 322.566 42.6488C322.634 42.5802 322.715 42.5257 322.804 42.4885C322.893 42.4513 322.989 42.4322 323.085 42.4322H331.117C331.213 42.4322 331.309 42.4513 331.398 42.4885C331.487 42.5257 331.568 42.5802 331.635 42.6488C331.703 42.7174 331.756 42.7987 331.792 42.888C331.827 42.9772 331.845 43.0727 331.843 43.1687V45.0926C331.806 46.0062 332.133 46.8975 332.753 47.5729C333.373 48.2483 334.236 48.6533 335.155 48.7001H350.371C351.288 48.6534 352.15 48.2478 352.768 47.5719C353.386 46.8961 353.709 46.0048 353.668 45.0926C353.668 41.1094 351.051 39.5763 341.417 37.4569C337.29 36.7464 333.27 35.5191 329.453 33.8044C323.584 30.7982 322.359 26.2889 322.359 23.0573C322.319 20.0566 323.478 17.1624 325.582 15.0096C327.685 12.8568 330.563 11.6211 333.582 11.5736H351.732C354.746 11.6093 357.623 12.8294 359.735 14.9672C361.846 17.105 363.02 19.9866 363 22.9821V24.8309C363 25.0223 362.924 25.2058 362.787 25.3411C362.651 25.4764 362.467 25.5524 362.274 25.5524H354.258ZM265.383 11.5436H257.276C257.086 11.5475 256.906 11.6253 256.773 11.7601C256.64 11.895 256.565 12.0763 256.565 12.2651V42.7779L235.632 12.2651C235.489 12.0677 235.306 11.9018 235.095 11.7776C234.885 11.6535 234.65 11.5738 234.407 11.5436H226.149C225.957 11.5436 225.772 11.6196 225.636 11.7549C225.5 11.8902 225.423 12.0737 225.423 12.2651V55.7346C225.421 55.8299 225.438 55.9246 225.474 56.0131C225.51 56.1015 225.563 56.1819 225.631 56.2493C225.699 56.3167 225.78 56.3698 225.869 56.4053C225.958 56.4408 226.053 56.4581 226.149 56.456H234.241C234.337 56.4581 234.432 56.4408 234.521 56.4053C234.61 56.3698 234.691 56.3167 234.759 56.2493C234.827 56.1819 234.88 56.1015 234.916 56.0131C234.952 55.9246 234.969 55.8299 234.967 55.7346V25.2217L255.9 55.7346C256.041 55.9346 256.223 56.1024 256.434 56.2269C256.645 56.3513 256.881 56.4294 257.125 56.456H265.383C265.576 56.456 265.761 56.38 265.897 56.2447C266.033 56.1094 266.109 55.9259 266.109 55.7346V12.2651C266.105 12.0749 266.028 11.8936 265.892 11.7591C265.757 11.6247 265.575 11.5474 265.383 11.5436ZM298.25 31.9556L318.109 12.22C318.167 12.1662 318.207 12.0963 318.224 12.0195C318.242 11.9426 318.235 11.8623 318.206 11.7892C318.176 11.7161 318.125 11.6535 318.06 11.6097C317.994 11.5659 317.916 11.5428 317.837 11.5436H307.673C307.568 11.5438 307.464 11.5652 307.368 11.6065C307.272 11.6479 307.185 11.7083 307.113 11.7841L287.042 31.7151V12.2651C287.042 12.0737 286.966 11.8902 286.83 11.7549C286.694 11.6196 286.509 11.5436 286.316 11.5436H278.3C278.108 11.5436 277.923 11.6196 277.787 11.7549C277.651 11.8902 277.574 12.0737 277.574 12.2651V55.7346C277.572 55.8299 277.589 55.9246 277.625 56.0131C277.661 56.1015 277.714 56.1819 277.782 56.2493C277.85 56.3167 277.931 56.3698 278.02 56.4053C278.109 56.4408 278.204 56.4581 278.3 56.456H286.392C286.488 56.4581 286.583 56.4408 286.672 56.4053C286.761 56.3698 286.842 56.3167 286.91 56.2493C286.978 56.1819 287.031 56.1015 287.067 56.0131C287.103 55.9246 287.12 55.8299 287.118 55.7346V43.1086L292.578 37.6824L307.96 56.1855C308.032 56.2672 308.121 56.3333 308.219 56.3798C308.318 56.4264 308.426 56.4523 308.535 56.456H317.852C317.929 56.4601 318.006 56.4414 318.072 56.4025C318.139 56.3636 318.192 56.3062 318.226 56.2373C318.26 56.1684 318.272 56.0911 318.262 56.0151C318.252 55.9391 318.22 55.8676 318.17 55.8097L298.25 31.9556ZM161.006 56.456H151.689C151.579 56.4562 151.47 56.4319 151.371 56.3851C151.271 56.3383 151.184 56.2701 151.114 56.1855L138.727 41.2898H127.806V55.7346C127.808 55.8299 127.791 55.9246 127.755 56.0131C127.72 56.1015 127.666 56.1819 127.598 56.2493C127.53 56.3167 127.45 56.3698 127.361 56.4053C127.272 56.4408 127.176 56.4581 127.08 56.456H118.988C118.893 56.4581 118.797 56.4408 118.708 56.4053C118.619 56.3698 118.538 56.3167 118.471 56.2493C118.403 56.1819 118.349 56.1015 118.314 56.0131C118.278 55.9246 118.26 55.8299 118.262 55.7346V12.2651C118.262 12.0737 118.339 11.8902 118.475 11.7549C118.611 11.6196 118.796 11.5436 118.988 11.5436H144.414C148.011 11.5356 151.49 12.816 154.214 15.1502C156.939 17.4843 158.725 20.7158 159.247 24.2526C159.769 27.7895 158.991 31.3947 157.056 34.4078C155.12 37.4209 152.157 39.64 148.709 40.6585L161.308 55.8097C161.358 55.8667 161.39 55.9367 161.4 56.0112C161.411 56.0858 161.399 56.1618 161.367 56.2301C161.335 56.2984 161.284 56.356 161.22 56.3961C161.156 56.4362 161.081 56.457 161.006 56.456ZM127.731 33.4737H142.856C144.737 33.4737 146.541 32.731 147.872 31.409C149.202 30.0869 149.949 28.2939 149.949 26.4242C149.949 24.5546 149.202 22.7615 147.872 21.4395C146.541 20.1174 144.737 19.3747 142.856 19.3747H127.731V33.4737ZM219.721 55.7947L198.213 12.0246C198.152 11.9043 198.06 11.803 197.945 11.7314C197.83 11.6599 197.698 11.6209 197.563 11.6187H188.488C188.352 11.6209 188.22 11.6599 188.106 11.7314C187.991 11.803 187.898 11.9043 187.837 12.0246L166.178 55.7797C166.142 55.8511 166.125 55.9306 166.128 56.0106C166.132 56.0906 166.156 56.1683 166.199 56.2363C166.241 56.3043 166.301 56.3602 166.371 56.3987C166.442 56.4372 166.521 56.4569 166.602 56.456H175.45C175.586 56.4556 175.719 56.4173 175.834 56.3456C175.949 56.2738 176.041 56.1715 176.1 56.0502L192.995 21.7045L201.904 39.7416H190.666C190.526 39.7424 190.39 39.7823 190.272 39.8568C190.154 39.9312 190.06 40.0372 190 40.1625L186.159 48.0988C186.122 48.1703 186.105 48.2498 186.108 48.3298C186.112 48.4098 186.136 48.4875 186.179 48.5555C186.221 48.6234 186.281 48.6794 186.351 48.7179C186.422 48.7564 186.502 48.7761 186.582 48.7752H206.245L209.844 56.0652C209.905 56.1855 209.998 56.2869 210.113 56.3584C210.227 56.43 210.359 56.4689 210.495 56.4711H219.328C219.414 56.4864 219.502 56.4768 219.582 56.4434C219.663 56.4101 219.732 56.3544 219.782 56.283C219.831 56.2117 219.859 56.1277 219.861 56.0411C219.864 55.9545 219.842 55.8689 219.797 55.7947H219.721ZM108.9 48.2491L102.275 44.4463C102.074 44.3288 101.839 44.2826 101.608 44.3154C101.377 44.3482 101.165 44.4579 101.005 44.6267C98.8808 46.7874 96.1569 48.2699 93.1811 48.8851C90.2053 49.5003 87.1125 49.2202 84.2976 48.0805C81.4827 46.9409 79.0734 44.9934 77.3774 42.4867C75.6813 39.9801 74.7755 37.028 74.7755 34.0073C74.7755 30.9867 75.6813 28.0346 77.3774 25.5279C79.0734 23.0213 81.4827 21.0738 84.2976 19.9341C87.1125 18.7945 90.2053 18.5143 93.1811 19.1295C96.1569 19.7447 98.8808 21.2273 101.005 23.388C101.169 23.5497 101.383 23.6535 101.612 23.6833C101.842 23.7132 102.074 23.6675 102.275 23.5533L108.9 19.7505C108.989 19.6999 109.066 19.6302 109.125 19.5466C109.184 19.463 109.223 19.3675 109.241 19.267C109.258 19.1664 109.253 19.0632 109.225 18.9649C109.198 18.8666 109.149 18.7756 109.082 18.6983C105.933 14.8374 101.669 12.0292 96.8638 10.6524C92.0588 9.27564 86.9446 9.39665 82.211 10.9991C77.4775 12.6015 73.3524 15.6083 70.3924 19.6137C67.4324 23.6192 65.7798 28.4305 65.6577 33.3986V34.571C65.7768 39.5403 67.4272 44.3537 70.3861 48.3615C73.3451 52.3692 77.47 55.3783 82.2042 56.9826C86.9384 58.5869 92.0539 58.7092 96.8602 57.3329C101.667 55.9566 105.932 53.148 109.082 49.2863C109.144 49.2083 109.188 49.1183 109.213 49.0219C109.237 48.9256 109.241 48.8253 109.224 48.7274C109.207 48.6295 109.169 48.5364 109.113 48.4539C109.058 48.3715 108.985 48.3017 108.9 48.2491Z" fill="white"/>
</g>
<defs>
<clipPath id="clip0_4_929">
<rect width="363" height="68" fill="white"/>
</clipPath>
</defs>
</svg>
