<svg width="14" height="11" viewBox="0 0 14 11" fill="none" xmlns="http://www.w3.org/2000/svg">
<path d="M8.08386 9.89176C7.9172 9.7251 7.8372 9.52371 7.84386 9.2876C7.85108 9.05149 7.93803 8.8501 8.1047 8.68343L10.4589 6.32926H1.1672C0.931085 6.32926 0.733029 6.24926 0.573029 6.08926C0.413585 5.92982 0.333862 5.73204 0.333862 5.49593C0.333862 5.25982 0.413585 5.06176 0.573029 4.90176C0.733029 4.74232 0.931085 4.6626 1.1672 4.6626H10.4589L8.08386 2.2876C7.9172 2.12093 7.83386 1.92288 7.83386 1.69343C7.83386 1.46454 7.9172 1.26676 8.08386 1.1001C8.25053 0.933431 8.44858 0.850098 8.67803 0.850098C8.90692 0.850098 9.1047 0.933431 9.27136 1.1001L13.0839 4.9126C13.1672 4.99593 13.2264 5.08621 13.2614 5.18343C13.2958 5.28065 13.313 5.38482 13.313 5.49593C13.313 5.60704 13.2958 5.71121 13.2614 5.80843C13.2264 5.90565 13.1672 5.99593 13.0839 6.07926L9.25053 9.9126C9.09775 10.0654 8.90692 10.1418 8.67803 10.1418C8.44858 10.1418 8.25053 10.0584 8.08386 9.89176Z" fill="#39C7DE"/>
</svg>
